<svg width="16" height="14" viewBox="0 0 16 14" fill="none" xmlns="http://www.w3.org/2000/svg">
<path d="M0.999634 2.18668C0.999634 1.83858 1.15767 1.50474 1.43897 1.2586C1.72028 1.01246 2.10181 0.874178 2.49963 0.874178H5.49963C5.89746 0.874178 6.27899 1.01246 6.56029 1.2586C6.8416 1.50474 6.99963 1.83858 6.99963 2.18668V4.81168C6.99963 5.15977 6.8416 5.49361 6.56029 5.73976C6.27899 5.9859 5.89746 6.12418 5.49963 6.12418H2.49963C2.10181 6.12418 1.72028 5.9859 1.43897 5.73976C1.15767 5.49361 0.999634 5.15977 0.999634 4.81168V2.18668ZM2.49963 1.74918C2.36703 1.74918 2.23985 1.79527 2.14608 1.87732C2.05231 1.95937 1.99963 2.07065 1.99963 2.18668V4.81168C1.99963 4.92771 2.05231 5.03899 2.14608 5.12104C2.23985 5.20308 2.36703 5.24918 2.49963 5.24918H5.49963C5.63224 5.24918 5.75942 5.20308 5.85319 5.12104C5.94696 5.03899 5.99963 4.92771 5.99963 4.81168V2.18668C5.99963 2.07065 5.94696 1.95937 5.85319 1.87732C5.75942 1.79527 5.63224 1.74918 5.49963 1.74918H2.49963ZM8.99963 2.18668C8.99963 1.83858 9.15767 1.50474 9.43897 1.2586C9.72028 1.01246 10.1018 0.874178 10.4996 0.874178H13.4996C13.8975 0.874178 14.279 1.01246 14.5603 1.2586C14.8416 1.50474 14.9996 1.83858 14.9996 2.18668V4.81168C14.9996 5.15977 14.8416 5.49361 14.5603 5.73976C14.279 5.9859 13.8975 6.12418 13.4996 6.12418H10.4996C10.1018 6.12418 9.72028 5.9859 9.43897 5.73976C9.15767 5.49361 8.99963 5.15977 8.99963 4.81168V2.18668ZM10.4996 1.74918C10.367 1.74918 10.2398 1.79527 10.1461 1.87732C10.0523 1.95937 9.99963 2.07065 9.99963 2.18668V4.81168C9.99963 4.92771 10.0523 5.03899 10.1461 5.12104C10.2398 5.20308 10.367 5.24918 10.4996 5.24918H13.4996C13.6322 5.24918 13.7594 5.20308 13.8532 5.12104C13.947 5.03899 13.9996 4.92771 13.9996 4.81168V2.18668C13.9996 2.07065 13.947 1.95937 13.8532 1.87732C13.7594 1.79527 13.6322 1.74918 13.4996 1.74918H10.4996ZM0.999634 9.18668C0.999634 8.83858 1.15767 8.50474 1.43897 8.2586C1.72028 8.01246 2.10181 7.87418 2.49963 7.87418H5.49963C5.89746 7.87418 6.27899 8.01246 6.56029 8.2586C6.8416 8.50474 6.99963 8.83858 6.99963 9.18668V11.8117C6.99963 12.1598 6.8416 12.4936 6.56029 12.7398C6.27899 12.9859 5.89746 13.1242 5.49963 13.1242H2.49963C2.10181 13.1242 1.72028 12.9859 1.43897 12.7398C1.15767 12.4936 0.999634 12.1598 0.999634 11.8117V9.18668ZM2.49963 8.74918C2.36703 8.74918 2.23985 8.79527 2.14608 8.87732C2.05231 8.95937 1.99963 9.07065 1.99963 9.18668V11.8117C1.99963 11.9277 2.05231 12.039 2.14608 12.121C2.23985 12.2031 2.36703 12.2492 2.49963 12.2492H5.49963C5.63224 12.2492 5.75942 12.2031 5.85319 12.121C5.94696 12.039 5.99963 11.9277 5.99963 11.8117V9.18668C5.99963 9.07065 5.94696 8.95937 5.85319 8.87732C5.75942 8.79527 5.63224 8.74918 5.49963 8.74918H2.49963ZM8.99963 9.18668C8.99963 8.83858 9.15767 8.50474 9.43897 8.2586C9.72028 8.01246 10.1018 7.87418 10.4996 7.87418H13.4996C13.8975 7.87418 14.279 8.01246 14.5603 8.2586C14.8416 8.50474 14.9996 8.83858 14.9996 9.18668V11.8117C14.9996 12.1598 14.8416 12.4936 14.5603 12.7398C14.279 12.9859 13.8975 13.1242 13.4996 13.1242H10.4996C10.1018 13.1242 9.72028 12.9859 9.43897 12.7398C9.15767 12.4936 8.99963 12.1598 8.99963 11.8117V9.18668ZM10.4996 8.74918C10.367 8.74918 10.2398 8.79527 10.1461 8.87732C10.0523 8.95937 9.99963 9.07065 9.99963 9.18668V11.8117C9.99963 11.9277 10.0523 12.039 10.1461 12.121C10.2398 12.2031 10.367 12.2492 10.4996 12.2492H13.4996C13.6322 12.2492 13.7594 12.2031 13.8532 12.121C13.947 12.039 13.9996 11.9277 13.9996 11.8117V9.18668C13.9996 9.07065 13.947 8.95937 13.8532 8.87732C13.7594 8.79527 13.6322 8.74918 13.4996 8.74918H10.4996Z" fill="#545159"/>
</svg>
